<?xml version="1.0" encoding="UTF-8"?>
<svg viewBox="0 0 350 200" xmlns="http://www.w3.org/2000/svg" xmlns:xlink="http://www.w3.org/1999/xlink">
 <defs>
  <linearGradient id="a">
   <stop stop-opacity="0" offset="0"/>
   <stop offset="1"/>
  </linearGradient>
  <linearGradient id="b">
   <stop offset="0"/>
   <stop offset="1"/>
  </linearGradient>
  <linearGradient id="n" x1="272.36" x2="189.46" y1="137.13" y2="16.094" gradientUnits="userSpaceOnUse">
   <stop stop-color="#b9b9b9" offset="0"/>
   <stop stop-color="#575757" offset="1"/>
  </linearGradient>
  <linearGradient id="m" x1="315.77" x2="227.8" y1="142.37" y2="71.382" gradientUnits="userSpaceOnUse">
   <stop stop-color="#ed8c42" offset="0"/>
   <stop stop-color="#965800" offset="1"/>
  </linearGradient>
  <radialGradient id="l" cx="440" cy="238.08" r="92.695" gradientTransform="matrix(.95838 -1.5656e-8 1.551e-8 .93473 -332.52 -133.82)" gradientUnits="userSpaceOnUse">
   <stop stop-color="#d5c33b" offset="0"/>
   <stop stop-color="#874f00" offset="1"/>
  </radialGradient>
  <radialGradient id="j" cx="-98.941" cy="226.32" r="197.07" gradientTransform="matrix(.57694 -.014322 .012654 .50184 150.81 -20.367)" gradientUnits="userSpaceOnUse">
   <stop stop-color="#874f00" offset="0"/>
   <stop stop-color="#c3a61f" offset="1"/>
  </radialGradient>
  <radialGradient id="k" cx="-20" cy="275.22" r="197.07" gradientTransform="matrix(.34044 0 0 .35773 260.87 1.4494)" gradientUnits="userSpaceOnUse">
   <stop stop-color="#575757" offset="0"/>
   <stop stop-color="#9f9f9f" offset="1"/>
  </radialGradient>
  <radialGradient id="e" cx="1337" cy="266.16" r="89.938" gradientTransform="matrix(.10625 .0028583 -.0039915 .13929 303.25 107.68)" gradientUnits="userSpaceOnUse">
   <stop stop-color="#0a0a0a" offset="0"/>
   <stop stop-color="#0a0a0a" offset="1"/>
  </radialGradient>
  <radialGradient id="d" cx="279.07" cy="129.53" r="17.624" gradientUnits="userSpaceOnUse" spreadMethod="reflect">
   <stop stop-color="#0a0a0a" stop-opacity="0" offset="0"/>
   <stop stop-color="#0a0a0a" offset="1"/>
  </radialGradient>
  <radialGradient id="c" cx="292.76" cy="131.46" r="55.046" gradientUnits="userSpaceOnUse">
   <stop stop-color="#965800" offset="0"/>
   <stop stop-color="#ed8c42" offset="1"/>
  </radialGradient>
  <radialGradient id="i" cx="1337" cy="266.16" r="89.938" gradientTransform="matrix(.14366 .0039887 -.0053968 .19437 133.87 73.246)" gradientUnits="userSpaceOnUse" xlink:href="#b"/>
  <radialGradient id="h" cx="168.53" cy="192.07" r="139.94" gradientTransform="matrix(.17028 -1.0338e-8 1.0095e-8 .16626 72.488 71.794)" gradientUnits="userSpaceOnUse" xlink:href="#a" spreadMethod="reflect"/>
  <radialGradient id="g" cx="1337" cy="266.16" r="89.938" gradientTransform="matrix(.1295 .0035957 -.004865 .17522 266.84 69.985)" gradientUnits="userSpaceOnUse" xlink:href="#b"/>
  <radialGradient id="f" cx="168.53" cy="192.07" r="139.94" gradientTransform="matrix(.1535 0 0 .14988 211.51 68.677)" gradientUnits="userSpaceOnUse" xlink:href="#a" spreadMethod="reflect"/>
 </defs>
 <path d="m302.52 97.465c0 35.682-29.186 64.641-65.147 64.641s-65.147-28.959-65.147-64.641 29.186-64.641 65.147-64.641 65.147 28.959 65.147 64.641z" fill="url(#g)" stroke="url(#f)" stroke-width="41.607"/>
 <path d="m313.59 91.989c0 45.14-33.58 81.776-74.956 81.776s-74.956-36.636-74.956-81.776 33.58-81.776 74.956-81.776 74.956 36.636 74.956 81.776z" fill="#828282"/>
 <path d="m304.25 86.943c0 42.247-32.952 76.534-73.554 76.534s-73.554-34.287-73.554-76.534 32.952-76.534 73.554-76.534 73.554 34.287 73.554 76.534z" fill="none" stroke="#d7d7d7" stroke-width="14.719"/>
 <path d="m297.81 86.615c0 38.915-30.058 70.498-67.093 70.498s-67.093-31.583-67.093-70.498 30.058-70.498 67.093-70.498 67.093 31.583 67.093 70.498z" fill="url(#k)"/>
 <path d="m295.8 84.581c0 37.255-29.568 67.492-65.999 67.492s-65.999-30.236-65.999-67.492 29.568-67.492 65.999-67.492 65.999 30.236 65.999 67.492z" fill="#a7a7a7"/>
 <path d="m173.45 103.73c0 39.582-32.376 71.706-72.268 71.706s-72.268-32.124-72.268-71.706 32.376-71.706 72.268-71.706 72.268 32.124 72.268 71.706z" fill="url(#i)" stroke="url(#h)" stroke-width="46.155"/>
 <path d="m189.51 136.43c0.39149-1.4468 0.73079-3.5222 0.83254-5.0925 0.0615-0.9491 0.91499-3.4008 2.0462-5.8778 1.0674-2.3372 1.9407-4.3401 1.9407-4.4507s0.40385-0.76941 0.89747-1.4639 1.413-2.5708 2.043-4.1697c0.70882-1.7988 1.5141-3.1597 2.1126-3.57 4.7349-3.2466 6.3011-4.6527 8.3214-7.4707 1.2339-1.7212 1.7424-2.1085 3.1902-2.4298 1.1974-0.2657 2.4711-1.032 4.1788-2.5142 1.351-1.1726 2.5471-2.3494 2.6579-2.6151 0.38195-0.9157-1.2985-5.4378-2.4253-6.5264-0.71288-0.68873-1.0304-1.3226-0.90753-1.8116 0.14645-0.58277-0.1799-0.92493-1.4489-1.519-0.90085-0.42171-2.4477-1.3915-3.4374-2.1551s-2.3302-1.6967-2.9789-2.0735c-2.2003-1.2783-2.9915-4.8947-1.3201-6.0342 1.7781-1.2122 3.3182-4.9825 2.0353-4.9825-0.26391 0-0.35233-0.48772-0.23372-1.2892 0.11505-0.77743-0.01264-1.5303-0.32167-1.8967-0.42928-0.50891-0.42784-0.86304 0.00885-2.1817 0.71187-2.1496 0.2861-2.5659-2.6245-2.5659-3.7664 0-4.8392-1.5526-2.9007-4.1976 0.62649-0.8548 1.7536-2.4802 2.5046-3.6119s2.471-3.1338 3.8222-4.449c2.2054-2.1466 2.4567-2.5489 2.4567-3.932 0-1.0766 0.33875-2.0273 1.1244-3.1557 0.6184-0.88825 1.8406-3.1017 2.7161-4.9187s1.9135-3.7776 2.3067-4.3566 0.71494-1.668 0.71494-2.4197c0-1.7814 1.7875-4.3631 3.4819-5.029 0.70591-0.27739 2.227-0.91979 3.3802-1.4276 1.9872-0.87495 2.4653-0.91614 9.1495-0.7881 5.2232 0.10005 7.4854 0.29856 8.7209 0.76526 0.91747 0.34659 2.4912 0.63016 3.4971 0.63016 1.445 0 2.0854 0.22901 3.0504 1.0908 0.67173 0.59996 2.7005 1.8978 4.5084 2.8841 3.5566 1.9402 5.0902 3.7397 6.1585 7.2262 0.28494 0.92988 0.94005 2.2262 1.4558 2.8807 1.5975 2.0274 2.3128 4.126 2.0889 6.1285-0.11102 0.99271-0.00476 2.7867 0.23609 3.9866 1.1851 5.9037 1.5428 8.3705 1.693 11.675 0.08997 1.9782 0.44139 4.5786 0.78094 5.7785 0.72682 2.5683 0.84426 3.2884 1.3909 8.5284 0.27189 2.6062 0.29191 4.9025 0.05847 6.6951-0.50055 3.8426 0.09011 10.426 1.0608 11.823 0.40673 0.58549 0.91271 1.869 1.1245 2.8523 0.37576 1.7446 2.1535 5.2949 3.3566 6.7035 0.84298 0.98692 0.09689 1.6584-1.8426 1.6584-1.4258 0-1.5137 0.0656-1.3412 1.0007 0.39432 2.1383 1.8231 10.145 1.8774 10.521 0.03153 0.21818-0.28577 0.36217-0.70514 0.32s-2.2206-0.18701-4.0029-0.32191-4.2347-0.42209-5.4499-0.63823c-3.1362-0.55786-9.5224-0.57704-12.658-0.03806-1.4678 0.25227-3.3548 0.55855-4.1935 0.68066-1.5147 0.22052-4.6815 1.4266-8.446 3.2168-1.1289 0.53684-2.4595 1.5841-3.1271 2.4611-1.1082 1.4559-1.2731 1.5307-3.5627 1.6146-5.0151 0.18383-19.594 4.2957-31.691 8.9382-3.7387 1.4348-6.9669 2.6088-7.1737 2.6088s-0.29148-0.31237-0.18816-0.69419z" fill="url(#n)"/>
 <path d="m192.55 137.59c0.39151-1.4468 0.73081-3.5222 0.83255-5.0926 0.06152-0.94911 0.91501-3.4008 2.0462-5.8778 1.0674-2.3372 1.9407-4.3401 1.9407-4.4507s0.40387-0.76939 0.8975-1.4639 1.4129-2.5708 2.043-4.1696c0.70883-1.7988 1.5141-3.1597 2.1126-3.57 4.7348-3.2466 6.3011-4.6527 8.3214-7.4707 1.2339-1.7212 1.7424-2.1085 3.1902-2.4298 1.1974-0.2657 2.471-1.032 4.1787-2.5142 1.351-1.1726 2.5471-2.3493 2.6579-2.6151 0.38195-0.91568-1.2985-5.4378-2.4253-6.5264-0.7129-0.68873-1.0304-1.3226-0.90753-1.8116 0.14646-0.58279-0.17992-0.92495-1.4489-1.519-0.90086-0.42171-2.4477-1.3915-3.4375-2.1551s-2.3302-1.6967-2.9789-2.0736c-2.2003-1.2783-2.9914-4.8946-1.3201-6.0341 1.7781-1.2122 3.3182-4.9825 2.0353-4.9825-0.26389 0-0.3523-0.48772-0.23371-1.2892 0.11507-0.77744-0.01262-1.5304-0.32165-1.8967-0.42929-0.50891-0.42783-0.86304 0.00885-2.1817 0.71186-2.1496 0.2861-2.5659-2.6245-2.5659-3.7664 0-4.8392-1.5526-2.9007-4.1976 0.6265-0.8548 1.7536-2.4802 2.5046-3.6119s2.471-3.1338 3.8222-4.449c2.2054-2.1466 2.4568-2.5489 2.4568-3.932 0-1.0765 0.33872-2.0273 1.1243-3.1557 0.61839-0.88824 1.8406-3.1017 2.7161-4.9187s1.9135-3.7776 2.3067-4.3567 0.71492-1.668 0.71492-2.4197c0-1.7814 1.7875-4.3631 3.4819-5.029 0.70589-0.27739 2.227-0.91978 3.3802-1.4275 1.9872-0.87496 2.4653-0.91614 9.1495-0.78811 5.2232 0.10005 7.4854 0.29857 8.7208 0.76526 0.91749 0.34659 2.4912 0.63016 3.4971 0.63016 1.445 0 2.0854 0.22901 3.0504 1.0908 0.67173 0.59996 2.7005 1.8978 4.5084 2.8841 3.5566 1.9402 5.0901 3.7397 6.1585 7.2262 0.28494 0.92988 0.94004 2.2262 1.4558 2.8807 1.5975 2.0274 2.3128 4.126 2.0889 6.1285-0.11103 0.99271-0.00478 2.7867 0.23607 3.9866 1.1851 5.9036 1.5428 8.3705 1.693 11.675 0.08997 1.9782 0.44138 4.5786 0.78093 5.7785 0.72682 2.5683 0.84425 3.2883 1.3909 8.5284 0.27189 2.6062 0.29194 4.9025 0.05848 6.6952-0.50053 3.8426 0.0901 10.426 1.0608 11.823 0.40672 0.5855 0.9127 1.869 1.1245 2.8523 0.37578 1.7446 2.1535 5.2949 3.3566 6.7035 0.84299 0.98692 0.09691 1.6584-1.8426 1.6584-1.4258 0-1.5137 0.06559-1.3412 1.0007 0.3943 2.1383 1.8231 10.145 1.8774 10.521 0.03152 0.21815-0.2858 0.36216-0.70515 0.31998s-2.2206-0.18703-4.0028-0.32191-4.2347-0.42208-5.4499-0.63823c-3.1362-0.55787-9.5224-0.57707-12.658-0.03806-1.4678 0.25225-3.3548 0.55855-4.1935 0.68065-1.5148 0.22053-4.6815 1.4266-8.446 3.2168-1.1289 0.53684-2.4595 1.584-3.1271 2.4611-1.1082 1.4559-1.2732 1.5307-3.5627 1.6146-5.0151 0.18383-19.594 4.2957-31.691 8.9382-3.7388 1.4348-6.9669 2.6088-7.1737 2.6088s-0.29149-0.31237-0.18818-0.69418z" fill="#cbcbcb"/>
 <path d="m186.6 96.135c0 48.586-37.903 88.019-84.605 88.019s-84.605-39.432-84.605-88.019 37.903-88.019 84.605-88.019 84.605 39.432 84.605 88.019z" fill="#ab8312"/>
 <path d="m175.2 92.415c0 45.472-37.194 82.377-83.022 82.377s-83.022-36.905-83.022-82.377 37.194-82.377 83.022-82.377 83.022 36.905 83.022 82.377z" fill="none" stroke="#dfba3b" stroke-width="16.224"/>
 <path d="m168.21 94.626c0 41.886-33.926 75.88-75.729 75.88s-75.729-33.994-75.729-75.88 33.926-75.88 75.729-75.88 75.729 33.994 75.729 75.88z" fill="url(#j)"/>
 <path d="m164.82 92.063c0 41.019-33.552 74.31-74.892 74.31s-74.892-33.291-74.892-74.31 33.552-74.31 74.892-74.31 74.892 33.291 74.892 74.31z" fill="#c6a948"/>
 <path d="m56.86 145.01c-3.1136-0.55247-6.3508-2.2802-8.6501-4.6166l-1.7758-1.8045v-7.9888l2.2439-2.9596c2.738-3.6113 3.1901-4.718 2.8186-6.8999-0.22241-1.3062 0.00162-2.3062 0.97818-4.3662 1.8631-3.9302 2.9171-5.188 4.3477-5.188 0.6737 0 1.5927-0.4032 2.0421-0.896 1.371-1.5031 8.1452-3.3201 8.7511-2.3472 0.34881 0.55999 2.0858 0.68698 2.1264 0.15545 0.20634-2.7047 0.35341-6.1177 0.31047-7.2047-0.13153-3.3291 0.04852-5.3468 0.59367-6.6527 0.72152-1.7284 0.3365-2.185-2.3465-2.7832-1.0938-0.24384-3.2958-1.0436-4.8933-1.7773-3.764-1.7286-4.9185-3.4058-4.5243-6.5724 0.23416-1.8809 0.12273-2.3965-0.70747-3.2733-0.81436-0.8601-0.89483-1.2087-0.46356-2.0083 0.28701-0.53213 0.36316-1.2206 0.16922-1.5298s-0.35913-1.5868-0.36709-2.839c-0.01262-1.9842-0.16627-2.3494-1.1963-2.8431-1.9224-0.9214-2.8186-2.1742-2.4887-3.4788 0.16114-0.63704 2.024-2.8082 4.1398-4.8248 4.675-4.4559 5.1817-5.1945 6.0249-8.7806 0.3646-1.5508 1.6346-4.5511 2.8222-6.6672 1.7049-3.038 2.9406-4.5287 5.8725-7.0845 7.415-6.4637 11.413-8.0095 19.614-7.5827 5.9796 0.31116 9.7346 1.1533 12.996 2.9145 3.8015 2.053 5.7099 4.4165 9.1621 11.347 2.5984 5.2167 3.3193 7.1575 3.8881 10.467 1.1913 6.9308 0.64412 12.371-1.7946 17.843-1.0859 2.4363-1.0994 2.5679-0.26394 2.5679 0.48435 0 1.5895-0.61755 2.4559-1.3723s1.7992-1.3723 2.0729-1.3723 0.72178 0.82587 0.99572 1.8353c0.46771 1.7236 0.41972 1.9046-0.78905 2.9744-1.2711 1.125-1.2756 1.148-0.36504 1.8527 0.56619 0.43814 1.4094 0.61911 2.1848 0.46885 1.9347-0.3749 2.5446 0.07665 3.349 2.4798 0.40727 1.2166 1.0378 2.4569 1.4012 2.7562 1.8102 1.4907 2.6382 3.7845 3.266 9.0483 1.4333 12.018 1.3927 12.344-1.3338 10.672-3.0849-1.8918-4.0083-1.1594-2.6045 2.0655 1.1781 2.7063 3.8997 14.246 4.5244 19.184l0.45734 3.6148-2.1645 2.2257c-4.3525 4.4754-9.1953 5.5008-15.178 3.2134-8.4688-3.2378-11.598-3.5763-18.133-1.962-2.1402 0.52867-5.7584 1.8474-8.0405 2.9305-6.7451 3.2013-11.925 5.2012-15.999 6.1764-4.5037 1.0781-12.021 1.5057-15.529 0.88332zm61.725-29.866c0-0.08783-0.83501-2.993-1.8556-6.4561-2.1677-7.3554-4.0254-11.884-5.987-14.594-1.2316-1.7017-1.4226-2.3811-1.5421-5.4862-0.11785-3.0623-0.29164-3.698-1.2792-4.6779l-1.1428-1.1339-1.5884 1.0642c-1.5259 1.0223-1.5827 1.1624-1.4442 3.5598 0.0793 1.3726 0.42516 3.1132 0.76858 3.868s0.77231 2.1647 0.95303 3.1331c0.23701 1.27 0.90813 2.29 2.4081 3.6596 1.5941 1.4555 2.7157 3.2336 4.8049 7.6168 3.1856 6.6835 4.8477 9.6063 5.4629 9.6063 0.24287 0 0.44158-0.07186 0.44158-0.15968z" fill="url(#l)"/>
 <path d="m60.073 146.89c-3.1136-0.55246-6.3508-2.2801-8.6501-4.6166l-1.7758-1.8045v-7.9888l2.2439-2.9596c2.738-3.6113 3.1901-4.718 2.8186-6.8999-0.2224-1.3062 0.00162-2.3062 0.97818-4.3662 1.8631-3.9302 2.9171-5.188 4.3477-5.188 0.67371 0 1.5927-0.4032 2.0421-0.89599 1.371-1.5031 8.1452-3.3201 8.7511-2.3472 0.3488 0.55998 2.0858 0.68697 2.1264 0.15544 0.20634-2.7047 0.35341-6.1177 0.31046-7.2047-0.13154-3.329 0.04853-5.3468 0.59367-6.6527 0.72152-1.7284 0.3365-2.1851-2.3465-2.7832-1.0938-0.24384-3.2958-1.0436-4.8933-1.7774-3.764-1.7286-4.9185-3.4058-4.5243-6.5724 0.23416-1.8809 0.12274-2.3965-0.70747-3.2733-0.81435-0.8601-0.89482-1.2087-0.46357-2.0083 0.28701-0.53212 0.36318-1.2206 0.16923-1.5298s-0.35913-1.5868-0.3671-2.839c-0.01262-1.9842-0.16625-2.3494-1.1963-2.8431-1.9224-0.92139-2.8186-2.1742-2.4887-3.4788 0.16113-0.63704 2.024-2.8082 4.1398-4.8248 4.675-4.4559 5.1817-5.1945 6.0249-8.7806 0.36462-1.5508 1.6346-4.5511 2.8222-6.6672 1.7049-3.038 2.9406-4.5287 5.8725-7.0845 7.415-6.4637 11.413-8.0095 19.614-7.5827 5.9795 0.31116 9.7346 1.1533 12.996 2.9145 3.8015 2.053 5.7099 4.4165 9.1621 11.347 2.5984 5.2167 3.3193 7.1575 3.8881 10.467 1.1913 6.9308 0.64408 12.371-1.7946 17.843-1.0859 2.4363-1.0994 2.5679-0.26394 2.5679 0.48436 0 1.5895-0.61755 2.4559-1.3723s1.7992-1.3723 2.0729-1.3723 0.72179 0.82588 0.99573 1.8353c0.46771 1.7236 0.41972 1.9046-0.78905 2.9744-1.271 1.125-1.2756 1.148-0.36505 1.8527 0.5662 0.43815 1.4095 0.61911 2.1849 0.46885 1.9347-0.3749 2.5446 0.07665 3.349 2.4798 0.40728 1.2166 1.0378 2.4569 1.4012 2.7562 1.8103 1.4907 2.6382 3.7845 3.266 9.0483 1.4333 12.018 1.3927 12.344-1.3338 10.672-3.0849-1.8918-4.0083-1.1594-2.6045 2.0655 1.1781 2.7063 3.8997 14.246 4.5244 19.184l0.45734 3.6148-2.1645 2.2257c-4.3524 4.4754-9.1953 5.5008-15.178 3.2134-8.4688-3.2378-11.598-3.5763-18.133-1.962-2.1402 0.52867-5.7584 1.8474-8.0405 2.9305-6.7451 3.2014-11.925 5.2012-15.999 6.1764-4.5037 1.0781-12.021 1.5057-15.529 0.88331zm61.725-29.866c0-0.08782-0.83501-2.9931-1.8556-6.4561-2.1677-7.3554-4.0254-11.884-5.987-14.594-1.2316-1.7017-1.4226-2.3811-1.5421-5.4862-0.11783-3.0623-0.29164-3.698-1.2792-4.6779l-1.1428-1.1339-1.5884 1.0642c-1.5258 1.0223-1.5827 1.1624-1.4442 3.5598 0.07929 1.3726 0.42515 3.1132 0.76856 3.868s0.77232 2.1647 0.95305 3.1331c0.237 1.27 0.90813 2.2899 2.4081 3.6595 1.5941 1.4556 2.7157 3.2336 4.8049 7.6168 3.1856 6.6835 4.8477 9.6063 5.4629 9.6063 0.24287 0 0.44157-0.07185 0.44157-0.15967z" fill="#d5c33b"/>
 <path d="m332.52 129.53c0 28.364-23.946 51.384-53.45 51.384s-53.45-23.02-53.45-51.384 23.946-51.384 53.45-51.384 53.45 23.02 53.45 51.384z" fill="url(#e)" stroke="url(#d)" stroke-width="33.602"/>
 <path d="m341.61 125.17c0 35.883-27.551 65.005-61.498 65.005s-61.498-29.122-61.498-65.005 27.551-65.005 61.498-65.005 61.498 29.122 61.498 65.005z" fill="#c87626"/>
 <path d="m333.94 121.16c0 33.583-27.036 60.838-60.348 60.838s-60.348-27.255-60.348-60.838 27.036-60.838 60.348-60.838 60.348 27.255 60.348 60.838z" fill="none" stroke="#d19e5d" stroke-width="11.887"/>
 <path d="m328.66 120.9c0 30.934-24.661 56.04-55.046 56.04s-55.046-25.106-55.046-56.04 24.661-56.04 55.046-56.04 55.046 25.106 55.046 56.04z" fill="url(#c)"/>
 <path d="m327.01 119.28c0 29.615-24.259 53.65-54.149 53.65s-54.149-24.035-54.149-53.65 24.259-53.65 54.149-53.65 54.149 24.035 54.149 53.65z" fill="#b78b50"/>
 <path d="m251.40867,164.253c-.52051-.11321-1.36333-.97296-1.37662-1.40428-.00454-.14766-.25217-.56891-.55027-.93607-.39395-.48525-.54668-1.01476-.5591-1.93851-.00938-.69899-.10093-1.35211-.20343-1.45136s-.18706-.46033-.18789-.8024-.16194-.91986-.35799-1.28399c-.3303-.61347-.32105-.66206.12577-.66206 .29959,0 .48223-.16493.48223-.43549 0-.23951.15381-.6393.34182-.88841 .22919-.30368.27762-.66987.14694-1.11126-.10717-.3621-.14029-.71123-.07362-.77581s.16361-2.12984.21539-4.58944c.05255-2.49679.22786-4.92516.3969-5.49807 .16654-.56436.28704-1.09575.26779-1.18084s.22693-.42855.54709-.76325c.44926-.46968.60547-.95632.68453-2.13242 .05635-.83813.29356-1.89262.52716-2.3433s.42475-1.01306.42475-1.24972 .09649-.48807.21441-.55868 .35893-.62855.53557-1.23989 .47156-1.16738.65532-1.23569 .33409-.26355.33409-.43384 .16877-.37234.37503-.44904 .34605-.27143.31061-.43276 .15406-.33907.4211-.39493c.54129-.11327 1.04831-.5528 3.68702-3.19619 .66988-.67104 1.15052-.94393 1.66262-.94393 .39615,0 .7894-.10835.87387-.24077 .20671-.32403 2.19222-.30757 2.53133.02099 .50223.4866.53243-.13885.09411-1.94957l-.43643-1.80302-2.08846-.15251c-2.87899-.21024-5.97549-1.22217-7.11337-2.32462-.83422-.80825-.86938-.90953-.73941-2.12963 .17507-1.64348-.18782-2.92731-.91866-3.24993-.3108-.1372-.74781-.54916-.97113-.91546-.35543-.58297-.36154-.72293-.04898-1.12304 .51759-.66249.45543-.94521-.27911-1.26946-.61778-.27272-.64338-.35368-.48803-1.54333 .37007-2.83417.14681-3.21191-2.03173-3.43797-2.00381-.2079-2.54335-.65398-2.54335-2.10271 0-.854.2433-1.39088 1.39105-3.06955 .76505-1.11898 1.56311-2.35954 1.77343-2.75677s.7084-1.12422 1.10688-1.61555c.60702-.74844.69775-1.03149.5595-1.74543-.14789-.76386-.1089-.85214.37638-.85214 .398,0 .50795-.11158.41516-.42131-.70277-2.34621-.70408-2.45429-.04555-3.73468 .34937-.67928.63524-1.36295.63524-1.51928 0-.5711 1.60127-4.10991 2.42441-5.35796 .93604-1.4192 2.18316-2.66191 3.60235-3.58956 .51306-.33537 1.27851-1.19512 1.70099-1.91053 .74764-1.26607 2.56711-3.18702 4.07518-4.30247 .41-.30327 1.83268-1.10157 3.16152-1.77402 4.40152-2.22734 10.00167-3.1685 13.86059-2.32941 2.41884.52595 3.78934,1.03245 6.89127,2.54679 3.90494,1.90636 6.4694,4.69351 7.77595,8.45119 .70494,2.02747.68461,6.0609-.04191,8.31845-.29213.90774-.55643,2.02961-.58735,2.49305s-.13408,1.81767-.22925,3.00938c-.11993,1.5019-.05408,2.97373.21464,4.79671 .23836,1.61717.38766,4.32901.38766,7.04192 0,2.47387.09883,4.41197.22499,4.41197 .12374,0 .65487-.20886 1.18028-.46412 2.63038-1.27794 4.42892-1.96265 4.98142-1.89641 .49211.05898.70317.32387 1.07391,1.34781 .25378.70093.80349,1.584 1.22158,1.9624s.76016.87618.76016,1.10618 .44727.88829.99394,1.4629c.87334.91797.99393,1.1857.99393,2.20663 0,1.01063.1126,1.26765.86501,1.97419 1.04446.98084 1.47564,2.13118 1.29309,3.44987-.07477.54-.01069,1.20446.1424,1.47662 .45739.81313.46571,6.09319.0115,7.28878-.21229.55879-.32987,1.22391-.26127,1.47802s.04876.58112-.04406.72663c-.2444.38311-2.54423.75414-3.62315.58451l-.92323-.14516 .17836,3.22639c.14908,2.69693-.172,8.50617-.48809,8.83085-.03671.03769-.72131-.03094-1.52137-.15249-1.822-.27683-2.17737-.15915-1.99238.6597 .07805.34543.32587,1.63695.55071,2.87009 .57027,3.1276.42503,3.50624-1.76983,4.6141-.95469.48189-3.07761,1.63471-4.7176,2.56184-3.64321,2.05958-3.52506,2.01604-5.82826,2.14717-6.43357.36622-11.85966,1.5477-15.78977,3.43805-3.80102,1.82828-10.47134,2.95344-17.44294,2.9423-1.56163-.00251-2.84871.09947-2.9335.2324-.24647.38638-.95888.64419-1.47184.53262z" fill="url(#m)"/>
 <path d="m253.20857,164.93091c-.52052-.11321-1.36333-.97297-1.37662-1.40428-.00456-.14766-.25218-.56888-.55029-.93607-.39394-.48525-.54666-1.01476-.55907-1.93852-.00938-.699-.10095-1.35211-.20344-1.45136s-.18705-.46032-.18789-.80239-.16196-.91985-.35801-1.28399c-.33028-.61346-.32103-.66207.12578-.66207 .2996,0 .48223-.16494.48223-.43549 0-.23951.15382-.63929.34184-.8884 .22917-.30369.27759-.66987.14695-1.11127-.10719-.36209-.14032-.71119-.07365-.77581s.16361-2.12985.21539-4.58942c.05255-2.49681.22786-4.92517.39691-5.49809 .16652-.56436.28702-1.09573.26777-1.18084s.22694-.42855.54711-.76326c.44925-.46967.60547-.9563.68453-2.13242 .05634-.83812.29356-1.8926.52717-2.34327s.42475-1.01306.42475-1.24972 .09647-.48809.2144-.55869 .35893-.62857.53558-1.23988 .47155-1.16739.65529-1.23571 .33411-.26353.33411-.43384 .16876-.37233.37503-.44902 .34604-.27144.3106-.43278 .15407-.33905.42111-.39492c.54127-.11327 1.04829-.5528 3.687-3.19618 .66989-.67105 1.15054-.94395 1.66262-.94395 .39615,0 .78943-.10835.87389-.24075 .20671-.32403 2.1922-.30759 2.53132.02098 .50224.4866.53242-.13885.09411-1.94958l-.43644-1.80301-2.08843-.15251c-2.87901-.21024-5.97549-1.22216-7.11338-2.32462-.83422-.80827-.86938-.90954-.73941-2.12963 .17506-1.64349-.18782-2.92731-.91866-3.24994-.3108-.1372-.74781-.54916-.97113-.91545-.35545-.58298-.36154-.72295-.04897-1.12304 .51756-.66249.45541-.94521-.27912-1.26946-.61778-.27272-.64338-.35367-.48805-1.54334 .37008-2.83416.14684-3.21191-2.03173-3.43796-2.00379-.2079-2.54334-.65399-2.54334-2.10271 0-.85402.2433-1.39087 1.39105-3.06955 .76507-1.11899 1.56312-2.35953 1.77342-2.75677s.70841-1.12422 1.10689-1.61555c.60701-.74843.69775-1.03149.55951-1.74543-.14789-.76386-.1089-.85214.37637-.85214 .39799,0 .50794-.11157.41516-.42131-.70275-2.34621-.70407-2.4543-.04554-3.73467 .34936-.67929.63523-1.36296.63523-1.51928 0-.5711 1.60126-4.10993 2.42441-5.35796 .93605-1.41921 2.18319-2.66191 3.60236-3.58956 .51306-.33539 1.2785-1.19512 1.70098-1.91054 .74764-1.26607 2.56711-3.18702 4.07518-4.30247 .40999-.30326 1.83268-1.10157 3.16154-1.77401 4.40149-2.22735 10.00165-3.16852 13.86058-2.32943 2.41883.52596 3.78934,1.03245 6.89126,2.54678 3.90495,1.90637 6.46941,4.69352 7.77594,8.45121 .70495,2.02747.68464,6.06089-.0419,8.31846-.29213.90773-.55642,2.02959-.58734,2.49304s-.13407,1.81767-.22926,3.00937c-.11993,1.5019-.05407,2.97374.21463,4.79671 .23837,1.6172.38767,4.329.38767,7.04194 0,2.47384.09883,4.41196.22499,4.41196 .12375,0 .65487-.20886 1.18029-.46413 2.63039-1.27794 4.42891-1.96263 4.98141-1.8964 .49212.05897.70318.32387 1.07391,1.34781 .25378.70091.8035,1.584 1.22158,1.96241s.76017.87616.76017,1.10617 .44727.8883.99393,1.4629c.87333.91797.99394,1.1857.99394,2.20664 0,1.01061.11262,1.26765.865,1.9742 1.04446.98082 1.47564,2.13115 1.29308,3.44985-.07475.53998-.01066,1.20447.1424,1.47659 .45739.81317.46572,6.09321.0115,7.28881-.21228.55878-.32984,1.22389-.26127,1.47804s.04878.58109-.04406.72662c-.24438.3831-2.54423.75412-3.62312.58449l-.92323-.14515 .17833,3.22637c.1491,2.69696-.172,8.5062-.48809,8.83088-.0367.03767-.72129-.03095-1.52135-.1525-1.82202-.27682-2.17738-.15916-1.99237.6597 .07803.34541.32584,1.63695.55069,2.8701 .57026,3.1276.42503,3.50625-1.76982,4.61409-.95471.48188-3.07762,1.63472-4.71761,2.56183-3.6432,2.05959-3.52505,2.01605-5.82825,2.14717-6.43356.36622-11.85967,1.54769-15.78977,3.43808-3.80104,1.82825-10.47135,2.95341-17.44295,2.94227-1.56163-.00249-2.84871.09947-2.9335.23241-.24647.38638-.95889.64419-1.47183.53262z" fill="#da9a42"/>
</svg>
